<mxfile host="app.diagrams.net" modified="2020-12-05T02:39:44.439Z" agent="5.0 (Windows NT 10.0; Win64; x64) AppleWebKit/537.36 (KHTML, like Gecko) Chrome/86.0.4240.198 Safari/537.36" etag="1M0ywV6UO8tWtI-TfM_y" version="13.10.9" type="github">
  <diagram id="pN5y2qUzTahzdGUeuB2O" name="第 1 页">
    <mxGraphModel dx="1038" dy="548" grid="1" gridSize="10" guides="1" tooltips="1" connect="1" arrows="1" fold="1" page="1" pageScale="1" pageWidth="827" pageHeight="1169" math="0" shadow="0">
      <root>
        <mxCell id="0" />
        <mxCell id="1" parent="0" />
        <mxCell id="fI8p0qqSnzzm9joJoxLZ-2" value="方法区&lt;br&gt;存放（对象、）" style="rounded=0;whiteSpace=wrap;html=1;" vertex="1" parent="1">
          <mxGeometry x="140" y="200" width="120" height="240" as="geometry" />
        </mxCell>
        <mxCell id="fI8p0qqSnzzm9joJoxLZ-3" value="堆" style="shape=cylinder3;whiteSpace=wrap;html=1;boundedLbl=1;backgroundOutline=1;size=15;" vertex="1" parent="1">
          <mxGeometry x="380" y="230" width="190" height="150" as="geometry" />
        </mxCell>
        <mxCell id="fI8p0qqSnzzm9joJoxLZ-5" value="public&amp;nbsp; Class&amp;nbsp; &amp;nbsp; Hello{&lt;br&gt;&lt;br&gt;public static void main(){&lt;br&gt;People p = new People&lt;br&gt;}&lt;br&gt;&lt;br&gt;}" style="rounded=0;whiteSpace=wrap;html=1;align=left;" vertex="1" parent="1">
          <mxGeometry x="220" y="20" width="230" height="90" as="geometry" />
        </mxCell>
        <mxCell id="fI8p0qqSnzzm9joJoxLZ-7" value="线程计数器" style="rounded=0;whiteSpace=wrap;html=1;fillColor=#d5e8d4;strokeColor=#82b366;" vertex="1" parent="1">
          <mxGeometry x="294" y="440" width="120" height="30" as="geometry" />
        </mxCell>
        <mxCell id="fI8p0qqSnzzm9joJoxLZ-8" value="虚拟机栈" style="rounded=0;whiteSpace=wrap;html=1;fillColor=#d5e8d4;strokeColor=#82b366;" vertex="1" parent="1">
          <mxGeometry x="294" y="480" width="120" height="200" as="geometry" />
        </mxCell>
        <mxCell id="fI8p0qqSnzzm9joJoxLZ-9" value="本地方法区" style="rounded=0;whiteSpace=wrap;html=1;fillColor=#d5e8d4;strokeColor=#82b366;" vertex="1" parent="1">
          <mxGeometry x="440" y="440" width="120" height="60" as="geometry" />
        </mxCell>
        <mxCell id="fI8p0qqSnzzm9joJoxLZ-11" style="edgeStyle=orthogonalEdgeStyle;rounded=0;orthogonalLoop=1;jettySize=auto;html=1;" edge="1" parent="1" source="fI8p0qqSnzzm9joJoxLZ-10" target="fI8p0qqSnzzm9joJoxLZ-3">
          <mxGeometry relative="1" as="geometry">
            <Array as="points">
              <mxPoint x="350" y="410" />
              <mxPoint x="475" y="410" />
            </Array>
          </mxGeometry>
        </mxCell>
        <mxCell id="fI8p0qqSnzzm9joJoxLZ-10" value="main&lt;br&gt;People p&amp;nbsp;" style="rounded=0;whiteSpace=wrap;html=1;fillColor=#f5f5f5;strokeColor=#666666;fontColor=#333333;" vertex="1" parent="1">
          <mxGeometry x="320" y="490" width="60" height="40" as="geometry" />
        </mxCell>
      </root>
    </mxGraphModel>
  </diagram>
</mxfile>
